# xmcd
#
# Track frame offsets:
#	150
#	22372
#	48732
#
# Disc length: 959 seconds
#
# Revision: 0
# Processed by: cddbd v1.5.2PL0 Copyright (c) Steve Scherf et al.
# Submitted via: EasyCDDAExtractor 10.2.0.1
#
DISCID=2803bd03
DTITLE=Indra - Anywhere CDM
DYEAR=1995
DGENRE=Dance
TTITLE0=Anywhere (Radio Edit)
TTITLE1=Anywhere (Extended Version)
TTITLE2=Anywhere (Hot Extended Mix)
EXTD=
EXTT0=
EXTT1=
EXTT2=
PLAYORDER=
